<?xml version="1.0" encoding="iso-8859-1"?>
<!-- Generator: Adobe Illustrator 19.0.0, SVG Export Plug-In . SVG Version: 6.00 Build 0)  -->
<svg version="1.1" id="Layer_1" xmlns="http://www.w3.org/2000/svg" xmlns:xlink="http://www.w3.org/1999/xlink" x="0px" y="0px"
	 viewBox="0 0 483.311 483.311" style="enable-background:new 0 0 483.311 483.311;" xml:space="preserve">
<g>
	<path style="fill:#FFF8EF;" d="M245.6,416.911c-1.6,1.6-4,3.2-6.4,3.2s-4.8-0.8-6.4-2.4c-4-3.2-4-8.8-0.8-12.8l0,0l4-4l13.6,12
		L245.6,416.911z"/>
	<path style="fill:#FFF8EF;" d="M220,393.711c-3.2,3.2-8.8,4-12.8,0.8c-1.6-1.6-3.2-4-3.2-6.4s0.8-4.8,2.4-6.4l4-4l12.8,12
		L220,393.711L220,393.711z"/>
	<path style="fill:#FFF8EF;" d="M186.4,354.511l12.8,12l-4,4c-1.6,1.6-4,2.4-6.4,3.2c-2.4,0-4.8-0.8-6.4-2.4c-1.6-1.6-3.2-4-3.2-6.4
		s0.8-4.8,2.4-6.4L186.4,354.511z"/>
	<path style="fill:#FFF8EF;" d="M161.6,332.111l12.8,12l-4,4c-3.2,3.2-8.8,4-12.8,0.8c-1.6-1.6-3.2-4-3.2-6.4s0.8-4.8,2.4-6.4
		L161.6,332.111z"/>
	<path style="fill:#FFF8EF;" d="M174.4,246.511l55.2-60.8l49.6-7.2c1.6,0,4-0.8,4.8-2.4l26.4-29.6l78.4,72l-21.6,24.8
		c-0.8,1.6-1.6,2.4-2.4,4l-7.2,46.4l-5.6,6.4l-64.8-56.8c12.8-1.6,26.4-8,37.6-20.8l-12-10.4c-13.6,15.2-29.6,17.6-44,16l-0.8-0.8
		v0.8c-16.8-3.2-30.4-12-31.2-12.8c-3.2-2.4-8-1.6-10.4,0.8l-39.2,42.4c-3.2,4-8.8,4-12.8,0.8
		C171.2,255.311,170.4,249.711,174.4,246.511z"/>
	<path style="fill:#FFF8EF;" d="M350.4,320.111c1.6,1.6,3.2,4,3.2,6.4s-0.8,4.8-2.4,6.4s-4,2.4-6.4,3.2c-2.4,0-4.8-0.8-6.4-2.4
		l-11.2-11.2l-16.8-15.2l-10.4,12l1.6,1.6l14.4,13.6l12,11.2c4,3.2,4,8.8,0.8,12.8s-8.8,4-12.8,0.8l-21.6-20l-7.2-7.2l-10.4,12
		l7.2,6.4l21.6,20c4,3.2,4,8.8,0.8,12.8c-1.6,1.6-4,3.2-6.4,3.2s-4.8-0.8-6.4-2.4l-28.8-26.4l-10.4,12l1.6,1.6l27.2,24.8
		c4,3.2,4,8.8,0.8,12.8c-4.8,3.2-11.2,3.2-14.4,0l-138.4-126.4l-7.2-40.8c0-1.6-1.6-3.2-2.4-4.8l-20.8-18.4l71.2-78.4l16.8,15.2
		c1.6,1.6,3.2,2.4,5.6,2.4l47.2-1.6l10.4,10.4l-28,4c-1.6,0-4,0.8-4.8,2.4l-57.6,63.2c-9.6,10.4-8.8,26.4,1.6,35.2
		c4.8,4,11.2,6.4,16.8,6.4c7.2,0,13.6-2.4,18.4-8l34.4-37.6c8,4.8,17.6,8.8,28.8,11.2L350.4,320.111z"/>
</g>
<g>
	<path style="fill:#2FB4C2;" d="M447.2,159.311l-11.2-11.2l-13.6,15.2l12,11.2L447.2,159.311z M365.6,67.311l99.2,90.4l-53.6,58.4
		l-8-8l22.4-24l-12-11.2l-22.4,24l-78.4-72L365.6,67.311z"/>
	<path style="fill:#2FB4C2;" d="M50.4,180.911l11.2-12l-15.2-13.6l-10.4,12L50.4,180.911z M72,178.511l-11.2,12l24,22.4l-7.2,8
		l-58.4-53.6l90.4-99.2l58.4,53.6l-72,78.4L72,178.511z"/>
</g>
<g>
	<polygon style="fill:#42210B;" points="447.2,159.311 433.6,174.511 421.6,163.311 436,148.111 	"/>
	<polygon style="fill:#42210B;" points="61.6,168.911 50.4,180.911 36,167.311 46.4,155.311 	"/>
	<path style="fill:#42210B;" d="M174.4,343.311l-12.8-11.2l-4,4c-1.6,1.6-2.4,4-2.4,6.4s0.8,4.8,3.2,6.4c4,3.2,8.8,3.2,12.8-0.8
		L174.4,343.311z M239.2,419.311c2.4,0,4.8-0.8,6.4-3.2l4-4l-13.6-12l-4,4l0,0c-3.2,4-3.2,9.6,0.8,12.8
		C234.4,418.511,236.8,420.111,239.2,419.311z M199.2,366.511l-12.8-12l-4,4c-1.6,1.6-2.4,4-2.4,6.4s0.8,4.8,3.2,6.4
		c1.6,1.6,4,2.4,6.4,2.4s4.8-0.8,6.4-3.2L199.2,366.511z M208,394.511c4,3.2,8.8,3.2,12.8-0.8l0,0l4-4l-12.8-12l-4.8,4
		c-1.6,1.6-2.4,4-2.4,6.4S206.4,392.911,208,394.511z M312,125.711l78.4,72l22.4-24l12,11.2l-22.4,24l8,8l53.6-58.4l-98.4-91.2
		L312,125.711z M367.2,243.311l22.4-24.8l-78.4-72l-26.4,29.6c-1.6,1.6-3.2,2.4-4.8,2.4l-49.6,7.2l-55.2,60.8
		c-3.2,4-3.2,9.6,0.8,12.8c4,3.2,9.6,3.2,12.8-0.8l39.2-42.4c2.4-3.2,7.2-3.2,10.4-0.8c0.8,0.8,14.4,10.4,31.2,12.8v-0.8l0.8,0.8
		c13.6,2.4,29.6-0.8,44-16l12,10.4c-12,12.8-24.8,19.2-37.6,20.8l64.8,57.6l5.6-6.4l7.2-46.4
		C365.6,245.711,366.4,244.911,367.2,243.311z M168,121.711l-58.4-53.6l-90.4,99.2l58.4,53.6l7.2-8l-24-22.4l11.2-12l24,22.4
		L168,121.711z M131.2,282.511l138.4,126.4c4,3.2,9.6,3.2,12.8-0.8c3.2-4,3.2-9.6-0.8-12.8l-27.2-24.8l-1.6-1.6l10.4-12l28.8,26.4
		c1.6,1.6,4,2.4,6.4,2.4s4.8-0.8,6.4-3.2c3.2-4,3.2-9.6-0.8-12.8l-21.6-20l-7.2-6.4l12-11.2l7.2,6.4l21.6,20c4,3.2,9.6,3.2,12.8-0.8
		c3.2-4,3.2-9.6-0.8-12.8l-12-11.2l-14.4-13.6l-1.6-1.6l10.4-12l16.8,15.2l12,10.4c1.6,1.6,4,2.4,6.4,2.4s4.8-0.8,6.4-3.2
		c1.6-1.6,2.4-4,2.4-6.4s-0.8-4.8-3.2-6.4l-88-77.6c-11.2-2.4-20.8-6.4-28.8-11.2l-35.2,39.2c-4.8,5.6-12,8-18.4,8s-12-2.4-16.8-6.4
		c-10.4-9.6-11.2-24.8-1.6-35.2l57.6-63.2c1.6-1.6,3.2-2.4,4.8-2.4l28-4l-11.2-9.6l-47.2,1.6c-2.4,0-4-0.8-5.6-2.4l-16-15.2
		l-71.2,78.4l20.8,18.4c1.6,0.8,2.4,3.2,2.4,4.8L131.2,282.511z M139.2,342.511c0-6.4,2.4-13.6,7.2-18.4l4-4l-32-28
		c-1.6-1.6-2.4-3.2-2.4-4.8l-7.2-40.8l-18.4-16.8l-6.4,7.2c-1.6,1.6-4,2.4-5.6,2.4s-4-0.8-5.6-2.4l-70.4-64
		c-1.6-1.6-2.4-3.2-2.4-5.6c0-2.4,0.8-4,2.4-5.6l100.8-110.4c1.6-1.6,3.2-2.4,5.6-2.4s4,0.8,5.6,2.4l70.4,64.8
		c3.2,3.2,3.2,8,0.8,11.2l-2.4,1.6l14.4,12.8l47.2-1.6c2.4,0,4,0.8,5.6,2.4l22.4,21.6h1.6l24.8-27.2l-4-4.8
		c-1.6-1.6-2.4-3.2-2.4-5.6c0-2.4,0.8-4,2.4-5.6l64-70.4c3.2-3.2,8-3.2,11.2-0.8l110.4,100.8c3.2,3.2,3.2,8,0.8,11.2l-64,70.4
		c-1.6,1.6-3.2,2.4-5.6,2.4l0,0c-2.4,0-4-0.8-5.6-2.4l-4-4l-21.6,24l-7.2,46.4c0,1.6-0.8,3.2-2.4,4l-8,8c3.2,4,5.6,8.8,5.6,14.4
		c0,7.2-1.6,13.6-6.4,18.4c-4,4.8-10.4,7.2-16.8,8c0,6.4-2.4,12-6.4,16.8s-10.4,7.2-16.8,8c0,6.4-2.4,12-6.4,16.8s-10.4,7.2-16.8,8
		c0,6.4-2.4,12-6.4,17.6c-4.8,5.6-12,8-18.4,8c-4.8,0-9.6-1.6-13.6-4l-4,4.8c-4.8,4.8-10.4,8-17.6,8h-0.8c-6.4,0-12-2.4-16.8-6.4
		s-7.2-10.4-8-16l0,0c-6.4,0-12-2.4-16.8-6.4s-7.2-10.4-8-16l0,0c-6.4,0-12-2.4-16.8-6.4s-7.2-10.4-8-16l0,0c-6.4,0-12-2.4-16.8-6.4
		C141.6,356.111,139.2,349.711,139.2,342.511z"/>
</g>
<g>
	<path style="fill:#1D9AAE;" d="M109.6,68.111l-67.2,72.8l56-47.2c7.2-6.4,18.4-6.4,25.6-0.8l41.6,29.6l1.6-1.6L109.6,68.111z"/>
	<path style="fill:#1D9AAE;" d="M317.6,119.311l40-28c6.4-4,14.4-4.8,20,0l51.2,34.4l-63.2-57.6L317.6,119.311z"/>
</g>
<g>
	<path style="fill:#D9CDC1;" d="M148,288.111c-8-8-14.4-17.6-16.8-28.8l-4-15.2l-3.2-1.6l7.2,40l138.4,126.4c2.4,2.4,5.6,2.4,8,1.6
		L148,288.111z"/>
	<path style="fill:#D9CDC1;" d="M359.2,236.111l-8,48l-8,8v0.8l8.8,8l5.6-6.4l7.2-46.4c0-1.6,0.8-3.2,2.4-4l22.4-24.8l-6.4-7.2
		L359.2,236.111z"/>
</g>
<g>
</g>
<g>
</g>
<g>
</g>
<g>
</g>
<g>
</g>
<g>
</g>
<g>
</g>
<g>
</g>
<g>
</g>
<g>
</g>
<g>
</g>
<g>
</g>
<g>
</g>
<g>
</g>
<g>
</g>
</svg>
