<?xml version="1.0" encoding="utf-8"?>
<svg xmlns="http://www.w3.org/2000/svg" style="margin: auto; background: none; display: block; shape-rendering: auto;" width="247" height="74" preserveAspectRatio="xMidYMid">
<style type="text/css">
  text {
    text-anchor: middle; font-size: 80px; opacity: 0;
  }
</style>
<g style="transform-origin:123.5px 37px;transform:scale(1)">
<g transform="translate(123.5,37)">
  <g transform="translate(0,0)"><g class="path" style="transform: scale(0.91); transform-origin: -81.52px -5.04px; animation: 0.487805s linear -0.241463s infinite normal forwards running breath-2e1569fd-c2d8-4848-bed3-237d9330fc4e;"><path d="M21.88-21.02L21.88 0L6.37 0L6.37-56.25L36.76-56.25L36.76-56.25Q40.70-56.25 44.32-55.20L44.32-55.20L44.32-55.20Q47.93-54.14 50.70-52.01L50.70-52.01L50.70-52.01Q53.48-49.88 55.14-46.66L55.14-46.66L55.14-46.66Q56.80-43.44 56.80-39.10L56.80-39.10L56.80-39.10Q56.80-36.37 56.02-33.96L56.02-33.96L56.02-33.96Q55.23-31.56 53.85-29.57L53.85-29.57L53.85-29.57Q52.46-27.58 50.59-25.98L50.59-25.98L50.59-25.98Q48.71-24.38 46.48-23.28L46.48-23.28L46.48-23.28Q44.26-22.19 41.78-21.60L41.78-21.60L41.78-21.60Q39.30-21.02 36.76-21.02L36.76-21.02L21.88-21.02zM41.09-39.10L41.09-39.10L41.09-39.10Q41.09-44.53 38.34-47.64L38.34-47.64L38.34-47.64Q35.59-50.74 30.04-50.74L30.04-50.74L21.88-50.74L21.88-26.33L30.04-26.33L30.04-26.33Q33.01-26.33 35.10-27.29L35.10-27.29L35.10-27.29Q37.19-28.24 38.52-29.96L38.52-29.96L38.52-29.96Q39.84-31.68 40.47-34.00L40.47-34.00L40.47-34.00Q41.09-36.33 41.09-39.10" fill="#297aff" stroke="none" stroke-width="none" transform="translate(-113.1049919128418,23.0850018119812)" style="fill: rgb(41, 122, 255);"></path></g><g class="path" style="transform: scale(0.91); transform-origin: -21.7714px 0.330002px; animation: 0.487805s linear -0.160976s infinite normal forwards running breath-2e1569fd-c2d8-4848-bed3-237d9330fc4e;"><path d="M118.44-26.91L118.44-26.91L118.44-26.17L118.44-26.17Q118.36-22.89 117.75-19.38L117.75-19.38L117.75-19.38Q117.15-15.86 116.05-12.34L116.05-12.34L116.05-12.34Q114.96-8.83 113.44-5.39L113.44-5.39L113.44-5.39Q111.91-1.95 110.02 1.19L110.02 1.19L110.02 1.19Q108.13 4.34 105.94 7.09L105.94 7.09L105.94 7.09Q103.75 9.84 101.33 11.95L101.33 11.95L95.51 8.59L95.51 8.59Q96.88 6.29 97.99 3.57L97.99 3.57L97.99 3.57Q99.10 0.86 100-2.11L100-2.11L100-2.11Q100.90-5.08 101.54-8.20L101.54-8.20L101.54-8.20Q102.19-11.33 102.62-14.41L102.62-14.41L102.62-14.41Q103.05-17.50 103.26-20.49L103.26-20.49L103.26-20.49Q103.48-23.48 103.48-26.17L103.48-26.17L103.48-26.17Q103.48-28.28 103.46-30.96L103.46-30.96L103.46-30.96Q103.44-33.63 103.14-36.41L103.14-36.41L103.14-36.41Q102.85-39.18 102.19-41.82L102.19-41.82L102.19-41.82Q101.52-44.45 100.21-46.52L100.21-46.52L100.21-46.52Q98.91-48.59 96.86-49.84L96.86-49.84L96.86-49.84Q94.80-51.09 91.76-51.09L91.76-51.09L91.76-51.09Q89.06-51.09 87.13-50.18L87.13-50.18L87.13-50.18Q85.20-49.26 83.85-47.71L83.85-47.71L83.85-47.71Q82.50-46.17 81.70-44.14L81.70-44.14L81.70-44.14Q80.90-42.11 80.45-39.86L80.45-39.86L80.45-39.86Q80-37.62 79.86-35.33L79.86-35.33L79.86-35.33Q79.73-33.05 79.73-31.02L79.73-31.02L79.73-20.12L96.56-20.12L96.56-13.67L79.73-13.67L79.73 0L64.22 0L64.22-28.59L64.22-28.59Q64.22-34.73 66.17-40L66.17-40L66.17-40Q68.13-45.27 71.70-49.16L71.70-49.16L71.70-49.16Q75.27-53.05 80.29-55.25L80.29-55.25L80.29-55.25Q85.31-57.46 91.48-57.46L91.48-57.46L91.48-57.46Q95.66-57.46 99.32-56.27L99.32-56.27L99.32-56.27Q102.97-55.08 105.98-52.99L105.98-52.99L105.98-52.99Q108.98-50.90 111.35-48.03L111.35-48.03L111.35-48.03Q113.71-45.16 115.29-41.76L115.29-41.76L115.29-41.76Q116.88-38.36 117.70-34.57L117.70-34.57L117.70-34.57Q118.52-30.78 118.44-26.91" fill="#297aff" stroke="none" stroke-width="none" transform="translate(-113.1049919128418,23.0850018119812)" style="fill: rgb(255, 46, 28);"></path></g><g class="path" style="transform: scale(0.91); transform-origin: 39.9014px -4.435px; animation: 0.487805s linear -0.0804878s infinite normal forwards running breath-2e1569fd-c2d8-4848-bed3-237d9330fc4e;"><path d="M133.63-56.25L145-56.25L145-56.25Q143.95-53.09 143.16-49.71L143.16-49.71L143.16-49.71Q142.38-46.33 141.88-42.95L141.88-42.95L141.88-42.95Q141.37-39.57 141.11-36.29L141.11-36.29L141.11-36.29Q140.86-33.01 140.86-30.08L140.86-30.08L140.86-30.08Q140.86-27.93 140.88-25.25L140.88-25.25L140.88-25.25Q140.90-22.58 141.19-19.80L141.19-19.80L141.19-19.80Q141.48-17.03 142.15-14.39L142.15-14.39L142.15-14.39Q142.81-11.76 144.12-9.69L144.12-9.69L144.12-9.69Q145.43-7.62 147.48-6.37L147.48-6.37L147.48-6.37Q149.53-5.12 152.58-5.12L152.58-5.12L152.58-5.12Q155.27-5.12 157.21-6.04L157.21-6.04L157.21-6.04Q159.14-6.95 160.49-8.52L160.49-8.52L160.49-8.52Q161.84-10.08 162.64-12.11L162.64-12.11L162.64-12.11Q163.44-14.14 163.89-16.37L163.89-16.37L163.89-16.37Q164.34-18.59 164.47-20.88L164.47-20.88L164.47-20.88Q164.61-23.16 164.61-25.23L164.61-25.23L164.61-56.25L180.12-56.25L180.12-27.66L180.12-27.66Q180.12-21.52 178.16-16.25L178.16-16.25L178.16-16.25Q176.21-10.98 172.66-7.09L172.66-7.09L172.66-7.09Q169.10-3.20 164.06-1.00L164.06-1.00L164.06-1.00Q159.02 1.21 152.89 1.21L152.89 1.21L152.89 1.21Q148.67 1.21 145.04 0.02L145.04 0.02L145.04 0.02Q141.41-1.17 138.38-3.26L138.38-3.26L138.38-3.26Q135.35-5.35 132.99-8.22L132.99-8.22L132.99-8.22Q130.63-11.09 129.04-14.49L129.04-14.49L129.04-14.49Q127.46-17.89 126.64-21.66L126.64-21.66L126.64-21.66Q125.82-25.43 125.90-29.30L125.90-29.30L125.90-30.08L125.90-30.08Q125.94-33.20 126.52-36.54L126.52-36.54L126.52-36.54Q127.11-39.88 128.11-43.24L128.11-43.24L128.11-43.24Q129.10-46.60 130.51-49.90L130.51-49.90L130.51-49.90Q131.91-53.20 133.63-56.25L133.63-56.25" fill="#297aff" stroke="none" stroke-width="none" transform="translate(-113.1049919128418,23.0850018119812)" style="fill: rgb(255, 188, 0);"></path></g><g class="path" style="transform: scale(0.91); transform-origin: 99.28px -5.04px; animation: 0.487805s linear 0s infinite normal forwards running breath-2e1569fd-c2d8-4848-bed3-237d9330fc4e;"><path d="M232.58-7.15L232.58 0L192.19 0L192.19-56.25L207.70-56.25L207.70-7.15L232.58-7.15" fill="#297aff" stroke="none" stroke-width="none" transform="translate(-113.1049919128418,23.0850018119812)" style="fill: rgb(0, 236, 122);"></path></g></g>
</g>
</g>
<style id="breath-2e1569fd-c2d8-4848-bed3-237d9330fc4e" data-anikit="">@keyframes breath-2e1569fd-c2d8-4848-bed3-237d9330fc4e
{
  0% {
    animation-timing-function: cubic-bezier(0.9647,0.2413,-0.0705,0.7911);
    transform: scale(0.9099999999999999);
  }
  51% {
    animation-timing-function: cubic-bezier(0.9226,0.2631,-0.0308,0.7628);
    transform: scale(1.02994);
  }
  100% {
    transform: scale(0.9099999999999999);
  }
}</style></svg>