<?xml version="1.0" encoding="utf-8"?>
<svg xmlns="http://www.w3.org/2000/svg" style="margin: auto; background: none; display: block; shape-rendering: auto;" width="214" height="74" preserveAspectRatio="xMidYMid">
<style type="text/css">
  text {
    text-anchor: middle; font-size: 80px; opacity: 0;
  }
</style>
<g style="transform-origin:107px 37px;transform:scale(1)">
<g transform="translate(107,37)">
  <g transform="translate(0,0)"><g class="path" style="transform: scale(0.91); transform-origin: -81.76px -5.24863px; animation: 1s linear -0.528s infinite normal forwards running breath-9ce236e0-40c0-4cfc-bed0-eca206519103;"><path d="M27.84-44.32L27.84-44.32L28.16-46.80L28.16-46.80Q28.16-50.48 25.28-51.52L25.28-51.52L25.28-51.52Q23.04-52.24 21.84-52.24L21.84-52.24L21.76-52.24L21.76-52.24Q19.36-52.24 17.60-51.48L17.60-51.48L17.60-51.48Q15.84-50.72 15.04-49.60L15.04-49.60L15.04-49.60Q13.36-47.28 13.12-44.72L13.12-44.72L13.12-44.72Q13.12-41.68 15.84-39.48L15.84-39.48L15.84-39.48Q18.56-37.28 22.44-35.64L22.44-35.64L22.44-35.64Q26.32-34 30.20-32.08L30.20-32.08L30.20-32.08Q34.08-30.16 36.80-26.56L36.80-26.56L36.80-26.56Q39.52-22.96 39.52-17.92L39.52-17.92L39.52-17.92Q39.52-8.08 33.32-3.20L33.32-3.20L33.32-3.20Q27.12 1.68 19.24 1.68L19.24 1.68L19.24 1.68Q11.36 1.68 6.20-1.88L6.20-1.88L6.20-1.88Q1.04-5.44 1.04-11.44L1.04-11.44L1.04-11.52L1.04-11.52Q1.04-14.48 1.96-16.68L1.96-16.68L1.96-16.68Q2.88-18.88 4.16-19.92L4.16-19.92L4.16-19.92Q6.80-22.08 8.96-22.24L8.96-22.24L9.92-22.32L9.92-22.32Q12.16-22.32 14-21.24L14-21.24L14-21.24Q15.84-20.16 15.84-18.24L15.84-18.24L15.84-18.24Q15.84-17.28 14.80-16.64L14.80-16.64L14.80-16.64Q13.76-16 13-14.72L13-14.72L13-14.72Q12.24-13.44 12.16-12.56L12.16-12.56L12-11.68L12-11.68Q12-6.80 16.48-5.20L16.48-5.20L16.48-5.20Q18.08-4.64 19.04-4.64L19.04-4.64L19.04-4.64Q23.44-4.64 26.12-7.28L26.12-7.28L26.12-7.28Q28.80-9.92 28.80-14L28.80-14L28.80-14Q28.80-18.88 24.64-21.92L24.64-21.92L24.64-21.92Q21.52-24.16 17.88-25.68L17.88-25.68L17.88-25.68Q14.24-27.20 12.96-27.84L12.96-27.84L12.96-27.84Q11.68-28.48 10.24-29.36L10.24-29.36L10.24-29.36Q8.80-30.24 7.04-31.84L7.04-31.84L7.04-31.84Q3.20-35.20 3.20-40.92L3.20-40.92L3.20-40.92Q3.20-46.64 6.32-50.56L6.32-50.56L6.32-50.56Q11.92-57.68 23.12-57.68L23.12-57.68L23.12-57.68Q29.04-57.68 33.12-55.40L33.12-55.40L33.12-55.40Q37.20-53.12 37.20-49.12L37.20-49.12L37.20-49.12Q37.20-46.24 35.56-44.32L35.56-44.32L35.56-44.32Q33.92-42.40 31.36-42.40L31.36-42.40L31.36-42.40Q30.16-42.40 29-42.88L29-42.88L29-42.88Q27.84-43.36 27.84-44.32" fill="#629cff" stroke="none" stroke-width="none" transform="translate(-102.03997802734375,22.75136468505859)" style="fill: rgb(98, 156, 255);"></path></g><g class="path" style="transform: scale(0.91); transform-origin: -37.96px -5.52864px; animation: 1s linear -0.396s infinite normal forwards running breath-9ce236e0-40c0-4cfc-bed0-eca206519103;"><path d="M64-45.84L64-45.84L64-45.84Q57.68-37.92 54.88-30L54.88-30L54.96-30L54.96-30Q66.08-30 67.72-29.96L67.72-29.96L67.72-29.96Q69.36-29.92 69.52-30.08L69.52-30.08L69.52-30.08Q69.68-30.24 69.76-30.48L69.76-30.48L69.76-30.48Q68.40-40.32 67.60-43.88L67.60-43.88L67.60-43.88Q66.80-47.44 66-47.44L66-47.44L66-47.44Q65.20-47.44 64-45.84zM56.88-8.16L56.88-8.16L58.64-8.48L58.64-8.48Q59.44-8.48 59.44-7.60L59.44-7.60L59.44-7.60Q59.44-4.80 58.32-2.88L58.32-2.88L58.32-2.88Q57.20-0.96 55.52-0.16L55.52-0.16L55.52-0.16Q52.80 1.20 50.88 1.20L50.88 1.20L50.88 1.20Q47.20 1.20 45.36-1.56L45.36-1.56L45.36-1.56Q43.52-4.32 43.52-9.88L43.52-9.88L43.52-9.88Q43.52-15.44 46.56-24.32L46.56-24.32L41.92-24.32L41.92-24.32Q41.04-24.32 41.04-25.20L41.04-25.20L41.04-25.20Q41.04-26.08 42.40-28.04L42.40-28.04L42.40-28.04Q43.76-30 45.28-30L45.28-30L48.88-30L48.88-30Q54.56-42.64 62.24-51.84L62.24-51.84L62.24-51.84Q64.24-54.24 67.16-56.32L67.16-56.32L67.16-56.32Q70.08-58.40 71.68-58.40L71.68-58.40L71.68-58.40Q73.28-58.40 74.08-56.96L74.08-56.96L74.08-56.96Q76.16-53.60 78.96-32.40L78.96-32.40L78.96-32.40Q79.92-23.28 82.28-13.56L82.28-13.56L82.28-13.56Q84.64-3.84 86.64-2.24L86.64-2.24L86.64-2.24Q87.12-1.92 87.12-1.44L87.12-1.44L87.12-1.44Q87.12-0.24 83.72 0.80L83.72 0.80L83.72 0.80Q80.32 1.84 78.52 1.84L78.52 1.84L78.52 1.84Q76.72 1.84 75.76 1.40L75.76 1.40L75.76 1.40Q74.80 0.96 74.56 0.48L74.56 0.48L74.56 0.48Q73.12-2.64 71.68-14.40L71.68-14.40L71.20-18.16L71.20-18.16Q70.88-21.92 70.56-23.84L70.56-23.84L70-24.24L53.28-24.32L53.28-24.32Q52.32-20.24 52.32-17.20L52.32-17.20L52.32-17.20Q52.32-14.16 52.52-12.76L52.52-12.76L52.52-12.76Q52.72-11.36 53.84-9.76L53.84-9.76L53.84-9.76Q54.96-8.16 56.88-8.16" fill="#629cff" stroke="none" stroke-width="none" transform="translate(-102.03997802734375,22.75136468505859)" style="fill: rgb(255, 77, 77);"></path></g><g class="path" style="transform: scale(0.91); transform-origin: 12.6px -5.80863px; animation: 1s linear -0.264s infinite normal forwards running breath-9ce236e0-40c0-4cfc-bed0-eca206519103;"><path d="M90.96-31.12L90.96-31.12L90.56-46.24L90.56-46.24Q90.56-49.84 89.76-51.92L89.76-51.92L89.76-51.92Q88.96-54 88.96-54.16L88.96-54.16L88.96-54.16Q88.96-55.92 94.36-56.88L94.36-56.88L94.36-56.88Q99.76-57.84 102.60-57.84L102.60-57.84L102.60-57.84Q105.44-57.84 105.68-56.48L105.68-56.48L105.68-56.48Q110.72-34 114.16-25.28L114.16-25.28L114.16-25.28Q114.56-24.32 115.00-24.32L115.00-24.32L115.00-24.32Q115.44-24.32 115.76-25.04L115.76-25.04L115.76-25.04Q121.12-40.16 125.20-54.96L125.20-54.96L125.20-54.96Q125.52-55.92 126.80-56.44L126.80-56.44L126.80-56.44Q128.08-56.96 131.24-57.44L131.24-57.44L131.24-57.44Q134.40-57.92 137.52-57.92L137.52-57.92L137.52-57.92Q140.64-57.92 140.64-56.64L140.64-56.64L140.64-56.64Q140.64-56.56 140.40-55.40L140.40-55.40L140.40-55.40Q140.16-54.24 139.92-52.56L139.92-52.56L139.92-52.56Q139.68-50.88 139.36-48.48L139.36-48.48L139.36-48.48Q138.64-42.96 138.44-35.80L138.44-35.80L138.44-35.80Q138.24-28.64 138.24-21.44L138.24-21.44L138.40-13.04L138.40-13.04Q138.40-7.28 139.16-4.84L139.16-4.84L139.16-4.84Q139.92-2.40 139.92-2.04L139.92-2.04L139.92-2.04Q139.92-1.68 139.36-1.20L139.36-1.20L139.36-1.20Q136.88 0.80 131.84 0.80L131.84 0.80L131.84 0.80Q128.64 0.80 128.24-1.36L128.24-1.36L128.24-1.36Q128-2.48 128-4.92L128-4.92L128-4.92Q128-7.36 128.48-19.92L128.48-19.92L128.48-19.92Q128.96-32.48 128.96-38.20L128.96-38.20L128.96-38.20Q128.96-43.92 128.32-43.92L128.32-43.92L128.32-43.92Q128.24-43.92 128.24-43.88L128.24-43.88L128.24-43.88Q128.24-43.84 128-43.76L128-43.76L128-43.76Q127.76-43.68 126.76-41.28L126.76-41.28L126.76-41.28Q125.76-38.88 122.80-29.44L122.80-29.44L122.80-29.44Q119.84-20 117.44-11.80L117.44-11.80L117.44-11.80Q115.04-3.60 114.80-2.96L114.80-2.96L114.80-2.96Q113.92-0.80 111.44-0.80L111.44-0.80L111.44-0.80Q110.24-0.80 109.52-1.68L109.52-1.68L109.52-1.68Q106.96-13.52 100.40-35.52L100.40-35.52L98.16-42.80L98.16-42.80Q98.00-43.20 97.84-43.20L97.84-43.20L97.84-43.20Q97.44-43.20 97.28-42.64L97.28-42.64L97.28-42.64Q96.96-37.44 96.96-22.20L96.96-22.20L96.96-22.20Q96.96-6.96 98.08-2.96L98.08-2.96L98.08-2.96Q98.16-2.80 98.16-2.48L98.16-2.48L98.16-2.48Q98.16-0.80 95.52-0.04L95.52-0.04L95.52-0.04Q92.88 0.72 90.76 0.72L90.76 0.72L90.76 0.72Q88.64 0.72 88.64-0.24L88.64-0.24L88.64-0.24Q88.64-0.32 89.04-1.52L89.04-1.52L89.04-1.52Q90.24-5.60 90.60-13.36L90.60-13.36L90.60-13.36Q90.96-21.12 90.96-31.12" fill="#629cff" stroke="none" stroke-width="none" transform="translate(-102.03997802734375,22.75136468505859)" style="fill: rgb(255, 188, 0);"></path></g><g class="path" style="transform: scale(0.91); transform-origin: 50px -5.04864px; animation: 1s linear -0.132s infinite normal forwards running breath-9ce236e0-40c0-4cfc-bed0-eca206519103;"><path d="M157.44-35.44L157.44-35.44L157.44-35.44Q157.44-10.64 158.56-2.96L158.56-2.96L158.56-2.96Q158.56-1.04 154.88 0.20L154.88 0.20L154.88 0.20Q151.20 1.44 148.80 1.44L148.80 1.44L148.80 1.44Q146.40 1.44 146.40 0.72L146.40 0.72L146.40 0.72Q146.40 0.24 146.64-0.48L146.64-0.48L146.64-0.48Q148.16-3.84 148.16-27.52L148.16-27.52L148.16-27.52Q148.16-49.92 146.24-52.40L146.24-52.40L145.92-52.88L145.92-52.88Q145.44-53.28 145.44-53.88L145.44-53.88L145.44-53.88Q145.44-54.48 146.32-54.88L146.32-54.88L146.32-54.88Q147.52-55.60 150.60-56.32L150.60-56.32L150.60-56.32Q153.68-57.04 156.16-57.04L156.16-57.04L156.16-57.04Q158.64-57.04 158.64-55.92L158.64-55.92L158.64-55.68L158.64-55.68Q157.68-47.36 157.44-35.44" fill="#629cff" stroke="none" stroke-width="none" transform="translate(-102.03997802734375,22.75136468505859)" style="fill: rgb(0, 255, 131);"></path></g><g class="path" style="transform: scale(0.91); transform-origin: 82.6px -5.08863px; animation: 1s linear 0s infinite normal forwards running breath-9ce236e0-40c0-4cfc-bed0-eca206519103;"><path d="M192.16-30.56L190.96-30.32L190.96-30.32Q190.08-30.08 190.08-29.80L190.08-29.80L190.08-29.80Q190.08-29.52 192-28.80L192-28.80L192-28.80Q193.92-28.08 195.64-26.56L195.64-26.56L195.64-26.56Q197.36-25.04 198.08-22.88L198.08-22.88L198.08-22.88Q199.20-19.60 199.20-15.84L199.20-15.84L199.20-15.84Q199.20-12.08 199.76-9.64L199.76-9.64L199.76-9.64Q200.32-7.20 201.12-5.92L201.12-5.92L201.12-5.92Q202.72-3.20 204.08-2.56L204.08-2.56L204.64-2.24L204.64-2.24Q205.12-1.92 205.12-1.44L205.12-1.44L205.12-1.44Q205.12-0.24 201.20 0.68L201.20 0.68L201.20 0.68Q197.28 1.60 195.12 1.60L195.12 1.60L195.12 1.60Q190.88 1.60 189.72-1.80L189.72-1.80L189.72-1.80Q188.56-5.20 188.56-13.44L188.56-13.44L188.56-17.84L188.56-17.84Q188.56-24.80 184.40-26.72L184.40-26.72L184.40-26.72Q182.80-27.44 180.56-27.44L180.56-27.44L180.48-27.44L180.48-27.44Q179.76-27.44 179.76-28.84L179.76-28.84L179.76-28.84Q179.76-30.24 180.60-31.68L180.60-31.68L180.60-31.68Q181.44-33.12 182.08-33.12L182.08-33.12L182.08-33.12Q184.72-33.12 186.64-34.12L186.64-34.12L186.64-34.12Q188.56-35.12 189.44-36.56L189.44-36.56L189.44-36.56Q191.28-39.60 191.44-41.76L191.44-41.76L191.44-42.80L191.44-42.80Q191.44-45.76 190.48-47.80L190.48-47.80L190.48-47.80Q189.52-49.84 188.08-50.64L188.08-50.64L188.08-50.64Q185.68-51.92 183.20-51.92L183.20-51.92L183.20-51.92Q180.72-51.92 179.12-51.52L179.12-51.52L179.12-51.52Q176.88-50.88 176.88-50.16L176.88-50.16L176.88-50.16Q176.16-39.68 176.16-29.96L176.16-29.96L176.16-29.96Q176.16-20.24 176.44-15.08L176.44-15.08L176.44-15.08Q176.72-9.92 177-6.76L177-6.76L177-6.76Q177.28-3.60 177.28-3.04L177.28-3.04L177.28-3.04Q177.28-2 176.72-1.60L176.72-1.60L176.72-1.60Q173.44 1.44 166.40 1.44L166.40 1.44L166.40 1.44Q165.20 1.44 165.20 0.64L165.20 0.64L165.20 0.64Q165.20 0.40 165.44-0.48L165.44-0.48L165.44-0.48Q166.24-2.32 166.60-12.16L166.60-12.16L166.60-12.16Q166.96-22 166.96-30.12L166.96-30.12L166.96-30.12Q166.96-38.24 166.64-43.28L166.64-43.28L166.64-43.28Q166.16-50.88 165.04-52.40L165.04-52.40L165.04-52.40Q164.16-53.52 164.16-53.96L164.16-53.96L164.16-53.96Q164.16-54.40 165.04-54.88L165.04-54.88L165.04-54.88Q170.16-57.28 183.60-57.28L183.60-57.28L183.60-57.28Q194.40-57.28 199.76-51.20L199.76-51.20L199.76-51.20Q202.64-47.84 202.64-42.80L202.64-42.80L202.64-42.80Q202.64-39.76 201.44-37.36L201.44-37.36L201.44-37.36Q200.24-34.96 198.48-33.68L198.48-33.68L198.48-33.68Q195.12-31.12 192.16-30.56L192.16-30.56" fill="#629cff" stroke="none" stroke-width="none" transform="translate(-102.03997802734375,22.75136468505859)" style="fill: rgb(251, 54, 255);"></path></g></g>
</g>
</g>
<style id="breath-9ce236e0-40c0-4cfc-bed0-eca206519103" data-anikit="">@keyframes breath-9ce236e0-40c0-4cfc-bed0-eca206519103
{
  0% {
    animation-timing-function: cubic-bezier(0.9647,0.2413,-0.0705,0.7911);
    transform: scale(0.9099999999999999);
  }
  51% {
    animation-timing-function: cubic-bezier(0.9226,0.2631,-0.0308,0.7628);
    transform: scale(1.02994);
  }
  100% {
    transform: scale(0.9099999999999999);
  }
}</style></svg>