<?xml version="1.0" encoding="utf-8"?>
<svg xmlns="http://www.w3.org/2000/svg" style="margin: auto; background: none; display: block; shape-rendering: auto;" width="289" height="74" preserveAspectRatio="xMidYMid">
<style type="text/css">
  text {
    text-anchor: middle; font-size: 80px; opacity: 0;
  }
</style>
<g style="transform-origin:144.5px 37px;transform:scale(1)">
<g transform="translate(144.5,37)">
  <g transform="translate(0,0)"><g class="path" style="transform: scale(0.91); transform-origin: -112.52px -5.35532px; animation: 0.487805s linear -0.257561s infinite normal forwards running breath-2e1569fd-c2d8-4848-bed3-237d9330fc4e;"><path d="M52.46-17.19L52.46-17.19L52.46-17.19Q52.46-13.55 51.54-10.78L51.54-10.78L51.54-10.78Q50.63-8.01 48.96-5.98L48.96-5.98L48.96-5.98Q47.30-3.95 45.04-2.58L45.04-2.58L45.04-2.58Q42.77-1.21 40.10-0.39L40.10-0.39L40.10-0.39Q37.42 0.43 34.43 0.78L34.43 0.78L34.43 0.78Q31.45 1.13 28.36 1.13L28.36 1.13L28.36 1.13Q24.30 1.13 20.86 0.53L20.86 0.53L20.86 0.53Q17.42-0.08 14.39-1.39L14.39-1.39L14.39-1.39Q11.37-2.70 8.57-4.77L8.57-4.77L8.57-4.77Q5.78-6.84 3.01-9.80L3.01-9.80L10.98-17.89L10.98-17.89Q12.07-15.20 13.98-12.91L13.98-12.91L13.98-12.91Q15.90-10.63 18.18-8.98L18.18-8.98L18.18-8.98Q20.47-7.34 22.93-6.41L22.93-6.41L22.93-6.41Q25.39-5.47 27.58-5.47L27.58-5.47L27.58-5.47Q30.16-5.47 32.42-5.84L32.42-5.84L32.42-5.84Q34.69-6.21 36.37-7.07L36.37-7.07L36.37-7.07Q38.05-7.93 39.00-9.36L39.00-9.36L39.00-9.36Q39.96-10.78 39.96-12.93L39.96-12.93L39.96-12.93Q39.96-14.57 39.22-15.74L39.22-15.74L39.22-15.74Q38.48-16.91 37.29-17.75L37.29-17.75L37.29-17.75Q36.09-18.59 34.57-19.18L34.57-19.18L34.57-19.18Q33.05-19.77 31.46-20.18L31.46-20.18L31.46-20.18Q29.88-20.59 28.36-20.92L28.36-20.92L28.36-20.92Q26.84-21.25 25.66-21.60L25.66-21.60L25.66-21.60Q23.36-22.27 20.86-23.03L20.86-23.03L20.86-23.03Q18.36-23.79 15.94-24.77L15.94-24.77L15.94-24.77Q13.52-25.74 11.35-27.01L11.35-27.01L11.35-27.01Q9.18-28.28 7.54-30.02L7.54-30.02L7.54-30.02Q5.90-31.76 4.92-34.04L4.92-34.04L4.92-34.04Q3.95-36.33 3.95-39.30L3.95-39.30L3.95-39.30Q3.95-42.85 4.82-45.61L4.82-45.61L4.82-45.61Q5.70-48.36 7.30-50.39L7.30-50.39L7.30-50.39Q8.91-52.42 11.09-53.81L11.09-53.81L11.09-53.81Q13.28-55.20 15.90-56.04L15.90-56.04L15.90-56.04Q18.52-56.88 21.46-57.25L21.46-57.25L21.46-57.25Q24.41-57.62 27.50-57.62L27.50-57.62L27.50-57.62Q31.72-57.62 35.18-56.84L35.18-56.84L35.18-56.84Q38.63-56.05 41.56-54.61L41.56-54.61L41.56-54.61Q44.49-53.16 46.93-51.15L46.93-51.15L46.93-51.15Q49.38-49.14 51.52-46.68L51.52-46.68L43.55-38.59L43.55-38.59Q42.62-41.41 40.96-43.67L40.96-43.67L40.96-43.67Q39.30-45.94 37.27-47.56L37.27-47.56L37.27-47.56Q35.23-49.18 33.01-50.06L33.01-50.06L33.01-50.06Q30.78-50.94 28.71-50.94L28.71-50.94L28.71-50.94Q26.02-50.94 23.75-50.57L23.75-50.57L23.75-50.57Q21.48-50.20 19.86-49.36L19.86-49.36L19.86-49.36Q18.24-48.52 17.34-47.09L17.34-47.09L17.34-47.09Q16.45-45.66 16.45-43.55L16.45-43.55L16.45-43.55Q16.45-41.88 17.11-40.70L17.11-40.70L17.11-40.70Q17.77-39.53 18.89-38.71L18.89-38.71L18.89-38.71Q20-37.89 21.41-37.36L21.41-37.36L21.41-37.36Q22.81-36.84 24.32-36.45L24.32-36.45L24.32-36.45Q25.82-36.05 27.29-35.76L27.29-35.76L27.29-35.76Q28.75-35.47 29.96-35.12L29.96-35.12L29.96-35.12Q32.30-34.45 34.88-33.71L34.88-33.71L34.88-33.71Q37.46-32.97 39.96-31.97L39.96-31.97L39.96-31.97Q42.46-30.98 44.73-29.69L44.73-29.69L44.73-29.69Q46.99-28.40 48.71-26.62L48.71-26.62L48.71-26.62Q50.43-24.84 51.45-22.52L51.45-22.52L51.45-22.52Q52.46-20.20 52.46-17.19" fill="#297aff" stroke="none" stroke-width="none" transform="translate(-140.2550163269043,22.88967770385742)" style="fill: rgb(41, 122, 255);"></path></g><g class="path" style="transform: scale(0.91); transform-origin: -51.6965px 0.134678px; animation: 0.487805s linear -0.193171s infinite normal forwards running breath-2e1569fd-c2d8-4848-bed3-237d9330fc4e;"><path d="M115.66-26.91L115.66-26.91L115.66-26.17L115.66-26.17Q115.59-22.89 114.98-19.38L114.98-19.38L114.98-19.38Q114.38-15.86 113.28-12.34L113.28-12.34L113.28-12.34Q112.19-8.83 110.66-5.39L110.66-5.39L110.66-5.39Q109.14-1.95 107.25 1.19L107.25 1.19L107.25 1.19Q105.35 4.34 103.16 7.09L103.16 7.09L103.16 7.09Q100.98 9.84 98.55 11.95L98.55 11.95L92.73 8.59L92.73 8.59Q94.10 6.29 95.21 3.57L95.21 3.57L95.21 3.57Q96.33 0.86 97.23-2.11L97.23-2.11L97.23-2.11Q98.13-5.08 98.77-8.20L98.77-8.20L98.77-8.20Q99.41-11.33 99.84-14.41L99.84-14.41L99.84-14.41Q100.27-17.50 100.49-20.49L100.49-20.49L100.49-20.49Q100.70-23.48 100.70-26.17L100.70-26.17L100.70-26.17Q100.70-28.28 100.68-30.96L100.68-30.96L100.68-30.96Q100.66-33.63 100.37-36.41L100.37-36.41L100.37-36.41Q100.08-39.18 99.41-41.82L99.41-41.82L99.41-41.82Q98.75-44.45 97.44-46.52L97.44-46.52L97.44-46.52Q96.13-48.59 94.08-49.84L94.08-49.84L94.08-49.84Q92.03-51.09 88.98-51.09L88.98-51.09L88.98-51.09Q86.29-51.09 84.36-50.18L84.36-50.18L84.36-50.18Q82.42-49.26 81.07-47.71L81.07-47.71L81.07-47.71Q79.73-46.17 78.93-44.14L78.93-44.14L78.93-44.14Q78.13-42.11 77.68-39.86L77.68-39.86L77.68-39.86Q77.23-37.62 77.09-35.33L77.09-35.33L77.09-35.33Q76.95-33.05 76.95-31.02L76.95-31.02L76.95-20.12L93.79-20.12L93.79-13.67L76.95-13.67L76.95 0L61.45 0L61.45-28.59L61.45-28.59Q61.45-34.73 63.40-40L63.40-40L63.40-40Q65.35-45.27 68.93-49.16L68.93-49.16L68.93-49.16Q72.50-53.05 77.52-55.25L77.52-55.25L77.52-55.25Q82.54-57.46 88.71-57.46L88.71-57.46L88.71-57.46Q92.89-57.46 96.54-56.27L96.54-56.27L96.54-56.27Q100.20-55.08 103.20-52.99L103.20-52.99L103.20-52.99Q106.21-50.90 108.57-48.03L108.57-48.03L108.57-48.03Q110.94-45.16 112.52-41.76L112.52-41.76L112.52-41.76Q114.10-38.36 114.92-34.57L114.92-34.57L114.92-34.57Q115.74-30.78 115.66-26.91" fill="#297aff" stroke="none" stroke-width="none" transform="translate(-140.2550163269043,22.88967770385742)" style="fill: rgb(255, 46, 28);"></path></g><g class="path" style="transform: scale(0.91); transform-origin: 18.165px -5.23532px; animation: 0.487805s linear -0.12878s infinite normal forwards running breath-2e1569fd-c2d8-4848-bed3-237d9330fc4e;"><path d="M149.02 0L136.17-41.95L131.80 0L122.23 0L131.80-56.25L145.98-56.25L159.14-13.32L172.46-56.25L186.64-56.25L194.61 0L178.83 0L174.18-40.86L163.20 0L149.02 0" fill="#297aff" stroke="none" stroke-width="none" transform="translate(-140.2550163269043,22.88967770385742)" style="fill: rgb(255, 188, 0);"></path></g><g class="path" style="transform: scale(0.91); transform-origin: 72.34px -5.23532px; animation: 0.487805s linear -0.0643902s infinite normal forwards running breath-2e1569fd-c2d8-4848-bed3-237d9330fc4e;"><path d="M220.35-56.25L220.35 0L204.84 0L204.84-56.25L220.35-56.25" fill="#297aff" stroke="none" stroke-width="none" transform="translate(-140.2550163269043,22.88967770385742)" style="fill: rgb(0, 236, 122);"></path></g><g class="path" style="transform: scale(0.91); transform-origin: 118.05px -5.23532px; animation: 0.487805s linear 0s infinite normal forwards running breath-2e1569fd-c2d8-4848-bed3-237d9330fc4e;"><path d="M248.59-21.02L248.59 0L233.09 0L233.09-56.25L260.74-56.25L260.74-56.25Q264.65-56.25 268.28-55.33L268.28-55.33L268.28-55.33Q271.91-54.41 274.71-52.44L274.71-52.44L274.71-52.44Q277.50-50.47 279.16-47.34L279.16-47.34L279.16-47.34Q280.82-44.22 280.82-39.77L280.82-39.77L280.82-39.77Q280.82-36.29 279.36-33.22L279.36-33.22L279.36-33.22Q277.89-30.16 275.45-27.75L275.45-27.75L275.45-27.75Q273.01-25.35 269.84-23.77L269.84-23.77L269.84-23.77Q266.68-22.19 263.28-21.68L263.28-21.68L263.28-21.68Q264.80-19.10 266.46-16.80L266.46-16.80L266.46-16.80Q268.13-14.49 269.82-12.48L269.82-12.48L269.82-12.48Q271.52-10.47 273.20-8.77L273.20-8.77L273.20-8.77Q274.88-7.07 276.41-5.66L276.41-5.66L276.41-5.66Q280-2.38 283.52 0L283.52 0L264.18 0L264.18 0Q261.84-2.23 259.73-5.35L259.73-5.35L259.73-5.35Q257.93-8.01 256.11-11.93L256.11-11.93L256.11-11.93Q254.30-15.86 253.32-21.02L253.32-21.02L248.59-21.02zM265.08-39.77L265.08-39.77L265.08-39.77Q265.08-45.43 262.32-48.09L262.32-48.09L262.32-48.09Q259.57-50.74 254.06-50.74L254.06-50.74L248.59-50.74L248.59-26.33L254.06-26.33L254.06-26.33Q256.99-26.33 259.08-27.44L259.08-27.44L259.08-27.44Q261.17-28.55 262.50-30.41L262.50-30.41L262.50-30.41Q263.83-32.27 264.45-34.69L264.45-34.69L264.45-34.69Q265.08-37.11 265.08-39.77" fill="#297aff" stroke="none" stroke-width="none" transform="translate(-140.2550163269043,22.88967770385742)" style="fill: rgb(225, 0, 255);"></path></g></g>
</g>
</g>
<style id="breath-2e1569fd-c2d8-4848-bed3-237d9330fc4e" data-anikit="">@keyframes breath-2e1569fd-c2d8-4848-bed3-237d9330fc4e
{
  0% {
    animation-timing-function: cubic-bezier(0.9647,0.2413,-0.0705,0.7911);
    transform: scale(0.9099999999999999);
  }
  51% {
    animation-timing-function: cubic-bezier(0.9226,0.2631,-0.0308,0.7628);
    transform: scale(1.02994);
  }
  100% {
    transform: scale(0.9099999999999999);
  }
}</style></svg>