<?xml version="1.0" encoding="utf-8"?>
<svg xmlns="http://www.w3.org/2000/svg" style="margin: auto; background: none; display: block; shape-rendering: auto;" width="220" height="75" preserveAspectRatio="xMidYMid">
<style type="text/css">
  text {
    text-anchor: middle; font-size: 82px; opacity: 0;
  }
</style>
<g style="transform-origin:110px 37.5px;transform:scale(1)">
<g transform="translate(110,37.5)">
  <g transform="translate(0,0)"><g class="path" style="transform: scale(0.91); transform-origin: -83.8px -5.3794px; animation: 0.641026s linear -0.338462s infinite normal forwards running breath-2e1569fd-c2d8-4848-bed3-237d9330fc4e;"><path d="M28.54-45.43L28.54-45.43L28.86-47.97L28.86-47.97Q28.86-51.74 25.91-52.81L25.91-52.81L25.91-52.81Q23.62-53.55 22.39-53.55L22.39-53.55L22.30-53.55L22.30-53.55Q19.84-53.55 18.04-52.77L18.04-52.77L18.04-52.77Q16.24-51.99 15.42-50.84L15.42-50.84L15.42-50.84Q13.69-48.46 13.45-45.84L13.45-45.84L13.45-45.84Q13.45-42.72 16.24-40.47L16.24-40.47L16.24-40.47Q19.02-38.21 23.00-36.53L23.00-36.53L23.00-36.53Q26.98-34.85 30.96-32.88L30.96-32.88L30.96-32.88Q34.93-30.91 37.72-27.22L37.72-27.22L37.72-27.22Q40.51-23.53 40.51-18.37L40.51-18.37L40.51-18.37Q40.51-8.28 34.15-3.28L34.15-3.28L34.15-3.28Q27.80 1.72 19.72 1.72L19.72 1.72L19.72 1.72Q11.64 1.72 6.36-1.93L6.36-1.93L6.36-1.93Q1.07-5.58 1.07-11.73L1.07-11.73L1.07-11.81L1.07-11.81Q1.07-14.84 2.01-17.10L2.01-17.10L2.01-17.10Q2.95-19.35 4.26-20.42L4.26-20.42L4.26-20.42Q6.97-22.63 9.18-22.80L9.18-22.80L10.17-22.88L10.17-22.88Q12.46-22.88 14.35-21.77L14.35-21.77L14.35-21.77Q16.24-20.66 16.24-18.70L16.24-18.70L16.24-18.70Q16.24-17.71 15.17-17.06L15.17-17.06L15.17-17.06Q14.10-16.40 13.33-15.09L13.33-15.09L13.33-15.09Q12.55-13.78 12.46-12.87L12.46-12.87L12.30-11.97L12.30-11.97Q12.30-6.97 16.89-5.33L16.89-5.33L16.89-5.33Q18.53-4.76 19.52-4.76L19.52-4.76L19.52-4.76Q24.03-4.76 26.77-7.46L26.77-7.46L26.77-7.46Q29.52-10.17 29.52-14.35L29.52-14.35L29.52-14.35Q29.52-19.35 25.26-22.47L25.26-22.47L25.26-22.47Q22.06-24.76 18.33-26.32L18.33-26.32L18.33-26.32Q14.60-27.88 13.28-28.54L13.28-28.54L13.28-28.54Q11.97-29.19 10.50-30.09L10.50-30.09L10.50-30.09Q9.02-31.00 7.22-32.64L7.22-32.64L7.22-32.64Q3.28-36.08 3.28-41.94L3.28-41.94L3.28-41.94Q3.28-47.81 6.48-51.82L6.48-51.82L6.48-51.82Q12.22-59.12 23.70-59.12L23.70-59.12L23.70-59.12Q29.77-59.12 33.95-56.79L33.95-56.79L33.95-56.79Q38.13-54.45 38.13-50.35L38.13-50.35L38.13-50.35Q38.13-47.40 36.45-45.43L36.45-45.43L36.45-45.43Q34.77-43.46 32.14-43.46L32.14-43.46L32.14-43.46Q30.91-43.46 29.73-43.95L29.73-43.95L29.73-43.95Q28.54-44.44 28.54-45.43" fill="#2477ff" stroke="none" stroke-width="none" transform="translate(-104.58999633789062,23.320601333618168)" style="fill: rgb(36, 119, 255);"></path></g><g class="path" style="transform: scale(0.91); transform-origin: -38.905px -5.6644px; animation: 0.641026s linear -0.253846s infinite normal forwards running breath-2e1569fd-c2d8-4848-bed3-237d9330fc4e;"><path d="M65.60-46.99L65.60-46.99L65.60-46.99Q59.12-38.87 56.25-30.75L56.25-30.75L56.33-30.75L56.33-30.75Q67.73-30.75 69.41-30.71L69.41-30.71L69.41-30.71Q71.09-30.67 71.26-30.83L71.26-30.83L71.26-30.83Q71.42-31.00 71.50-31.24L71.50-31.24L71.50-31.24Q70.11-41.33 69.29-44.98L69.29-44.98L69.29-44.98Q68.47-48.63 67.65-48.63L67.65-48.63L67.65-48.63Q66.83-48.63 65.60-46.99zM58.30-8.36L58.30-8.36L60.11-8.69L60.11-8.69Q60.93-8.69 60.93-7.79L60.93-7.79L60.93-7.79Q60.93-4.92 59.78-2.95L59.78-2.95L59.78-2.95Q58.63-0.98 56.91-0.16L56.91-0.16L56.91-0.16Q54.12 1.23 52.15 1.23L52.15 1.23L52.15 1.23Q48.38 1.23 46.49-1.60L46.49-1.60L46.49-1.60Q44.61-4.43 44.61-10.13L44.61-10.13L44.61-10.13Q44.61-15.83 47.72-24.93L47.72-24.93L42.97-24.93L42.97-24.93Q42.07-24.93 42.07-25.83L42.07-25.83L42.07-25.83Q42.07-26.73 43.46-28.74L43.46-28.74L43.46-28.74Q44.85-30.75 46.41-30.75L46.41-30.75L50.10-30.75L50.10-30.75Q55.92-43.71 63.80-53.14L63.80-53.14L63.80-53.14Q65.85-55.60 68.84-57.73L68.84-57.73L68.84-57.73Q71.83-59.86 73.47-59.86L73.47-59.86L73.47-59.86Q75.11-59.86 75.93-58.38L75.93-58.38L75.93-58.38Q78.06-54.94 80.93-33.21L80.93-33.21L80.93-33.21Q81.92-23.86 84.34-13.90L84.34-13.90L84.34-13.90Q86.76-3.94 88.81-2.30L88.81-2.30L88.81-2.30Q89.30-1.97 89.30-1.48L89.30-1.48L89.30-1.48Q89.30-0.25 85.81 0.82L85.81 0.82L85.81 0.82Q82.33 1.89 80.48 1.89L80.48 1.89L80.48 1.89Q78.64 1.89 77.65 1.44L77.65 1.44L77.65 1.44Q76.67 0.98 76.42 0.49L76.42 0.49L76.42 0.49Q74.95-2.71 73.47-14.76L73.47-14.76L72.98-18.61L72.98-18.61Q72.65-22.47 72.32-24.44L72.32-24.44L71.75-24.85L54.61-24.93L54.61-24.93Q53.63-20.75 53.63-17.63L53.63-17.63L53.63-17.63Q53.63-14.51 53.83-13.08L53.83-13.08L53.83-13.08Q54.04-11.64 55.19-10.00L55.19-10.00L55.19-10.00Q56.33-8.36 58.30-8.36" fill="#2477ff" stroke="none" stroke-width="none" transform="translate(-104.58999633789062,23.320601333618168)" style="fill: rgb(255, 50, 32);"></path></g><g class="path" style="transform: scale(0.91); transform-origin: 12.92px -5.9544px; animation: 0.641026s linear -0.169231s infinite normal forwards running breath-2e1569fd-c2d8-4848-bed3-237d9330fc4e;"><path d="M93.23-31.90L93.23-31.90L92.82-47.40L92.82-47.40Q92.82-51.09 92.00-53.22L92.00-53.22L92.00-53.22Q91.18-55.35 91.18-55.51L91.18-55.51L91.18-55.51Q91.18-57.32 96.72-58.30L96.72-58.30L96.72-58.30Q102.25-59.29 105.17-59.29L105.17-59.29L105.17-59.29Q108.08-59.29 108.32-57.89L108.32-57.89L108.32-57.89Q113.49-34.85 117.01-25.91L117.01-25.91L117.01-25.91Q117.42-24.93 117.88-24.93L117.88-24.93L117.88-24.93Q118.33-24.93 118.65-25.67L118.65-25.67L118.65-25.67Q124.15-41.16 128.33-56.33L128.33-56.33L128.33-56.33Q128.66-57.32 129.97-57.85L129.97-57.85L129.97-57.85Q131.28-58.38 134.52-58.88L134.52-58.88L134.52-58.88Q137.76-59.37 140.96-59.37L140.96-59.37L140.96-59.37Q144.16-59.37 144.16-58.06L144.16-58.06L144.16-58.06Q144.16-57.97 143.91-56.79L143.91-56.79L143.91-56.79Q143.66-55.60 143.42-53.87L143.42-53.87L143.42-53.87Q143.17-52.15 142.84-49.69L142.84-49.69L142.84-49.69Q142.11-44.03 141.90-36.70L141.90-36.70L141.90-36.70Q141.70-29.36 141.70-21.98L141.70-21.98L141.86-13.37L141.86-13.37Q141.86-7.46 142.64-4.96L142.64-4.96L142.64-4.96Q143.42-2.46 143.42-2.09L143.42-2.09L143.42-2.09Q143.42-1.72 142.84-1.23L142.84-1.23L142.84-1.23Q140.30 0.82 135.14 0.82L135.14 0.82L135.14 0.82Q131.86 0.82 131.45-1.39L131.45-1.39L131.45-1.39Q131.20-2.54 131.20-5.04L131.20-5.04L131.20-5.04Q131.20-7.54 131.69-20.42L131.69-20.42L131.69-20.42Q132.18-33.29 132.18-39.16L132.18-39.16L132.18-39.16Q132.18-45.02 131.53-45.02L131.53-45.02L131.53-45.02Q131.45-45.02 131.45-44.98L131.45-44.98L131.45-44.98Q131.45-44.94 131.20-44.85L131.20-44.85L131.20-44.85Q130.95-44.77 129.93-42.31L129.93-42.31L129.93-42.31Q128.90-39.85 125.87-30.18L125.87-30.18L125.87-30.18Q122.84-20.50 120.38-12.10L120.38-12.10L120.38-12.10Q117.92-3.69 117.67-3.03L117.67-3.03L117.67-3.03Q116.77-0.82 114.23-0.82L114.23-0.82L114.23-0.82Q113.00-0.82 112.26-1.72L112.26-1.72L112.26-1.72Q109.63-13.86 102.91-36.41L102.91-36.41L100.61-43.87L100.61-43.87Q100.45-44.28 100.29-44.28L100.29-44.28L100.29-44.28Q99.88-44.28 99.71-43.71L99.71-43.71L99.71-43.71Q99.38-38.38 99.38-22.76L99.38-22.76L99.38-22.76Q99.38-7.13 100.53-3.03L100.53-3.03L100.53-3.03Q100.61-2.87 100.61-2.54L100.61-2.54L100.61-2.54Q100.61-0.82 97.91-0.04L97.91-0.04L97.91-0.04Q95.20 0.74 93.03 0.74L93.03 0.74L93.03 0.74Q90.86 0.74 90.86-0.25L90.86-0.25L90.86-0.25Q90.86-0.33 91.27-1.56L91.27-1.56L91.27-1.56Q92.50-5.74 92.87-13.69L92.87-13.69L92.87-13.69Q93.23-21.65 93.23-31.90" fill="#2477ff" stroke="none" stroke-width="none" transform="translate(-104.58999633789062,23.320601333618168)" style="fill: rgb(255, 188, 0);"></path></g><g class="path" style="transform: scale(0.91); transform-origin: 51.255px -5.1744px; animation: 0.641026s linear -0.0846154s infinite normal forwards running breath-2e1569fd-c2d8-4848-bed3-237d9330fc4e;"><path d="M161.38-36.33L161.38-36.33L161.38-36.33Q161.38-10.91 162.52-3.03L162.52-3.03L162.52-3.03Q162.52-1.07 158.75 0.21L158.75 0.21L158.75 0.21Q154.98 1.48 152.52 1.48L152.52 1.48L152.52 1.48Q150.06 1.48 150.06 0.74L150.06 0.74L150.06 0.74Q150.06 0.25 150.31-0.49L150.31-0.49L150.31-0.49Q151.86-3.94 151.86-28.21L151.86-28.21L151.86-28.21Q151.86-51.17 149.90-53.71L149.90-53.71L149.57-54.20L149.57-54.20Q149.08-54.61 149.08-55.23L149.08-55.23L149.08-55.23Q149.08-55.84 149.98-56.25L149.98-56.25L149.98-56.25Q151.21-56.99 154.37-57.73L154.37-57.73L154.37-57.73Q157.52-58.47 160.06-58.47L160.06-58.47L160.06-58.47Q162.61-58.47 162.61-57.32L162.61-57.32L162.61-57.07L162.61-57.07Q161.62-48.54 161.38-36.33" fill="#2477ff" stroke="none" stroke-width="none" transform="translate(-104.58999633789062,23.320601333618168)" style="fill: rgb(0, 230, 119);"></path></g><g class="path" style="transform: scale(0.91); transform-origin: 84.665px -5.2144px; animation: 0.641026s linear 0s infinite normal forwards running breath-2e1569fd-c2d8-4848-bed3-237d9330fc4e;"><path d="M196.96-31.32L195.73-31.08L195.73-31.08Q194.83-30.83 194.83-30.55L194.83-30.55L194.83-30.55Q194.83-30.26 196.80-29.52L196.80-29.52L196.80-29.52Q198.77-28.78 200.53-27.22L200.53-27.22L200.53-27.22Q202.29-25.67 203.03-23.45L203.03-23.45L203.03-23.45Q204.18-20.09 204.18-16.24L204.18-16.24L204.18-16.24Q204.18-12.38 204.75-9.88L204.75-9.88L204.75-9.88Q205.33-7.38 206.15-6.07L206.15-6.07L206.15-6.07Q207.79-3.28 209.18-2.62L209.18-2.62L209.76-2.30L209.76-2.30Q210.25-1.97 210.25-1.48L210.25-1.48L210.25-1.48Q210.25-0.25 206.23 0.70L206.23 0.70L206.23 0.70Q202.21 1.64 200.00 1.64L200.00 1.64L200.00 1.64Q195.65 1.64 194.46-1.84L194.46-1.84L194.46-1.84Q193.27-5.33 193.27-13.78L193.27-13.78L193.27-18.29L193.27-18.29Q193.27-25.42 189.01-27.39L189.01-27.39L189.01-27.39Q187.37-28.13 185.07-28.13L185.07-28.13L184.99-28.13L184.99-28.13Q184.25-28.13 184.25-29.56L184.25-29.56L184.25-29.56Q184.25-31.00 185.12-32.47L185.12-32.47L185.12-32.47Q185.98-33.95 186.63-33.95L186.63-33.95L186.63-33.95Q189.34-33.95 191.31-34.97L191.31-34.97L191.31-34.97Q193.27-36.00 194.18-37.47L194.18-37.47L194.18-37.47Q196.06-40.59 196.23-42.80L196.23-42.80L196.23-43.87L196.23-43.87Q196.23-46.90 195.24-49.00L195.24-49.00L195.24-49.00Q194.26-51.09 192.78-51.91L192.78-51.91L192.78-51.91Q190.32-53.22 187.78-53.22L187.78-53.22L187.78-53.22Q185.24-53.22 183.60-52.81L183.60-52.81L183.60-52.81Q181.30-52.15 181.30-51.41L181.30-51.41L181.30-51.41Q180.56-40.67 180.56-30.71L180.56-30.71L180.56-30.71Q180.56-20.75 180.85-15.46L180.85-15.46L180.85-15.46Q181.14-10.17 181.43-6.93L181.43-6.93L181.43-6.93Q181.71-3.69 181.71-3.12L181.71-3.12L181.71-3.12Q181.71-2.05 181.14-1.64L181.14-1.64L181.14-1.64Q177.78 1.48 170.56 1.48L170.56 1.48L170.56 1.48Q169.33 1.48 169.33 0.66L169.33 0.66L169.33 0.66Q169.33 0.41 169.58-0.49L169.58-0.49L169.58-0.49Q170.40-2.38 170.77-12.46L170.77-12.46L170.77-12.46Q171.13-22.55 171.13-30.87L171.13-30.87L171.13-30.87Q171.13-39.20 170.81-44.36L170.81-44.36L170.81-44.36Q170.31-52.15 169.17-53.71L169.17-53.71L169.17-53.71Q168.26-54.86 168.26-55.31L168.26-55.31L168.26-55.31Q168.26-55.76 169.17-56.25L169.17-56.25L169.17-56.25Q174.41-58.71 188.19-58.71L188.19-58.71L188.19-58.71Q199.26-58.71 204.75-52.48L204.75-52.48L204.75-52.48Q207.71-49.04 207.71-43.87L207.71-43.87L207.71-43.87Q207.71-40.75 206.48-38.29L206.48-38.29L206.48-38.29Q205.25-35.83 203.44-34.52L203.44-34.52L203.44-34.52Q200.00-31.90 196.96-31.32L196.96-31.32" fill="#2477ff" stroke="none" stroke-width="none" transform="translate(-104.58999633789062,23.320601333618168)" style="fill: rgb(225, 0, 255);"></path></g></g>
</g>
</g>
<style id="breath-2e1569fd-c2d8-4848-bed3-237d9330fc4e" data-anikit="">@keyframes breath-2e1569fd-c2d8-4848-bed3-237d9330fc4e
{
  0% {
    animation-timing-function: cubic-bezier(0.9647,0.2413,-0.0705,0.7911);
    transform: scale(0.9099999999999999);
  }
  51% {
    animation-timing-function: cubic-bezier(0.9226,0.2631,-0.0308,0.7628);
    transform: scale(1.02994);
  }
  100% {
    transform: scale(0.9099999999999999);
  }
}</style></svg>