<svg xmlns="http://www.w3.org/2000/svg" width="835.5" height="48" viewBox="0 0 4456 256" fill="none" xmlns:v="https://vecta.io/nano"><svg width="256" height="256"><rect width="256" height="256" fill="#242938" rx="60"/><path fill="url(#A)" d="M127.279 29c-50.772 0-47.602 22.018-47.602 22.018l.057 22.81h48.451v6.849H60.489S28 76.993 28 128.222s28.357 49.414 28.357 49.414h16.924v-23.773s-.912-28.357 27.905-28.357h48.054s26.999.436 26.999-26.094V55.546S180.338 29 127.279 29zm-26.716 15.339a8.71 8.71 0 1 1 0 17.433 8.71 8.71 0 1 1 0-17.433z"/><path fill="url(#B)" d="M128.721 227.958c50.772 0 47.602-22.017 47.602-22.017l-.057-22.811h-48.451v-6.849h67.696S228 179.966 228 128.736s-28.357-49.413-28.357-49.413h-16.924v23.773s.912 28.357-27.905 28.357H106.76s-26.999-.437-26.999 26.093v43.866s-4.099 26.546 48.96 26.546zm26.716-15.339a8.71 8.71 0 1 1 0-17.433 8.71 8.71 0 1 1 0 17.433z"/><defs><linearGradient id="A" x1="47.22" x2="146.333" y1="46.896" y2="145.02" gradientUnits="userSpaceOnUse"><stop stop-color="#387eb8"/><stop offset="1" stop-color="#366994"/></linearGradient><linearGradient id="B" x1="108.056" x2="214.492" y1="109.905" y2="210.522" gradientUnits="userSpaceOnUse"><stop stop-color="#ffe052"/><stop offset="1" stop-color="#ffc331"/></linearGradient></defs></svg><g transform="translate(300)"><svg width="256" height="256"><rect width="256" height="256" fill="#242938" rx="60"/><path fill="#fff" d="M101.634 182.619s-7.679 4.674 5.345 6.011c15.728 2.004 24.044 1.669 41.407-1.668 0 0 4.674 3.009 11.02 5.344-39.075 16.696-88.497-1.002-57.772-9.687zm-5.009-21.705s-8.35 6.346 4.674 7.679c17.028 1.669 30.391 2.004 53.433-2.667 0 0 3.009 3.341 8.015 5.01-47.083 14.025-99.849 1.333-66.122-10.019v-.003zm92.17 38.07s5.676 4.674-6.346 8.35c-22.376 6.678-93.839 8.685-113.876 0-7.009-3.009 6.346-7.352 10.685-8.015 4.343-1.002 6.678-1.002 6.678-1.002-7.68-5.344-51.094 11.02-22.041 15.729 79.813 13.027 145.603-5.676 124.896-15.028l.003-.034zm-83.488-60.781s-36.402 8.685-13.028 11.687c10.019 1.333 29.721 1.002 48.089-.335 15.028-1.334 30.09-4.007 30.09-4.007s-5.345 2.338-9.017 4.674c-37.099 9.693-108.23 5.351-87.858-4.668 17.37-8.35 31.724-7.351 31.724-7.351h0zm65.116 36.401c37.407-19.37 20.037-38.07 8.015-35.731-3.009.667-4.342 1.334-4.342 1.334s1.001-2.004 3.34-2.667c23.709-8.35 42.413 25.046-7.679 38.07 0 0 .335-.335.666-1.002v-.004zm-61.444 52.76c36.067 2.339 91.168-1.334 92.505-18.369 0 0-2.667 6.678-29.72 11.688-30.722 5.676-68.796 5.009-91.168 1.333 0 0 4.674 4.007 28.386 5.344l-.003.004z"/><path fill="#f58219" d="M147.685 28s20.704 21.039-19.702 52.759c-32.394 25.713-7.351 40.409 0 57.102-19.035-17.028-32.722-32.059-23.377-46.085C118.331 71.083 156.062 61.064 147.685 28zM137 123.842c9.683 11.02-2.667 21.039-2.667 21.039s24.711-12.686 13.359-28.387c-10.354-15.028-18.368-22.376 25.046-47.425 0 0-68.46 17.028-35.731 54.766l-.007.007z"/></svg></g><g transform="translate(600)"><svg width="256" height="256"><rect width="256" height="256" fill="#00599c" rx="60"/><path d="M110.759 210.517C65.125 210.517 28 173.392 28 127.759S65.125 45 110.759 45c29.445 0 56.908 15.846 71.668 41.353l-35.816 20.726c-7.387-12.768-21.126-20.7-35.852-20.7-22.817 0-41.38 18.563-41.38 41.38s18.562 41.379 41.38 41.379c14.727 0 28.466-7.932 35.854-20.702l35.816 20.725c-14.76 25.51-42.223 41.356-71.67 41.356zm82.758-87.356h-9.196v-9.196h-9.194v9.196h-9.196v9.195h9.196v9.196h9.194v-9.196h9.196v-9.195zm34.483 0h-9.196v-9.196h-9.194v9.196h-9.196v9.195h9.196v9.196h9.194v-9.196H228v-9.195z" fill="#fff"/></svg></g><g transform="translate(900)"><svg width="256" height="256"><rect width="256" height="256" rx="60" fill="#394aab"/><path d="M134.001 33c35.143 0 65.827 19.086 82.261 47.456l-.16-.273-41.349 23.808c-8.146-13.793-23.081-23.102-40.213-23.293l-.539-.003c-26.126 0-47.306 21.179-47.306 47.304a47.08 47.08 0 0 0 6.239 23.47c8.154 14.235 23.483 23.837 41.068 23.837 17.692 0 33.108-9.724 41.221-24.111l-.197.345 41.286 23.918c-16.254 28.13-46.517 47.157-81.252 47.536l-1.058.006c-35.255 0-66.026-19.204-82.419-47.724C43.579 161.353 39 145.212 39 127.999 39 75.533 81.532 33 134.001 33z" fill="#fff"/></svg></g><g transform="translate(1200)"><svg width="256" height="256"><rect width="256" height="256" fill="#242938" rx="60"/><path d="M49.158 100.246h28.408c8.338.07 14.38 2.474 18.126 7.208s4.982 11.2 3.71 19.398c-.494 3.746-1.59 7.42-3.286 11.024-1.626 3.604-3.886 6.854-6.784 9.752-3.534 3.674-7.314 6.006-11.342 6.996s-8.198 1.484-12.508 1.484h-12.72l-4.028 20.14H34l15.158-76.002h0zM61.56 112.33l-6.36 31.8a7.8 7.8 0 0 0 1.272.106h1.484c6.784.07 12.438-.6 16.96-2.014 4.522-1.484 7.562-6.642 9.116-15.476 1.272-7.42 0-11.696-3.816-12.826-3.746-1.13-8.444-1.66-14.098-1.59-.848.07-1.66.106-2.438.106h-2.226l.106-.106M116.186 80h14.628l-4.134 20.246h13.144c7.208.142 12.578 1.626 16.112 4.452 3.604 2.826 4.664 8.198 3.18 16.112l-7.102 35.298h-14.84l6.784-33.708c.706-3.534.494-6.042-.636-7.526s-3.568-2.226-7.314-2.226l-11.766-.106-8.692 43.566h-14.628L116.186 80zm58.638 20.246h28.408c8.338.07 14.38 2.474 18.126 7.208s4.982 11.2 3.71 19.398c-.494 3.746-1.59 7.42-3.286 11.024-1.626 3.604-3.886 6.854-6.784 9.752-3.534 3.674-7.314 6.006-11.342 6.996s-8.198 1.484-12.508 1.484h-12.72l-4.028 20.14h-14.734l15.158-76.002h0zm12.402 12.084l-6.36 31.8a7.8 7.8 0 0 0 1.272.106h1.484c6.784.07 12.438-.6 16.96-2.014 4.522-1.484 7.562-6.642 9.116-15.476 1.272-7.42 0-11.696-3.816-12.826-3.746-1.13-8.444-1.66-14.098-1.59-.848.07-1.66.106-2.438.106h-2.226l.106-.106" fill="#fff"/></svg></g><g transform="translate(1500)"><svg width="256" height="256"><rect width="256" height="256" rx="60" fill="#f0db4f"/><path d="M67.312 213.932l19.591-11.856c3.779 6.701 7.218 12.371 15.464 12.371 7.905 0 12.889-3.092 12.889-15.12v-81.798h24.058v82.138c0 24.917-14.606 36.259-35.916 36.259-19.245 0-30.416-9.967-36.087-21.996m85.07-2.576l19.588-11.341c5.157 8.421 11.859 14.607 23.715 14.607 9.969 0 16.325-4.984 16.325-11.858 0-8.248-6.53-11.17-17.528-15.98l-6.013-2.579c-17.357-7.388-28.871-16.668-28.871-36.258 0-18.044 13.748-31.792 35.229-31.792 15.294 0 26.292 5.328 34.196 19.247l-18.731 12.029c-4.125-7.389-8.591-10.31-15.465-10.31-7.046 0-11.514 4.468-11.514 10.31 0 7.217 4.468 10.139 14.778 14.608l6.014 2.577c20.449 8.765 31.963 17.699 31.963 37.804 0 21.654-17.012 33.51-39.867 33.51-22.339 0-36.774-10.654-43.819-24.574" fill="#323330"/></svg></g><g transform="translate(1800)"><svg width="256" height="256"><rect width="256" height="256" fill="#e14e1d" rx="60"/><path fill="#fff" d="M48 38l8.61 96.593h110.71l-3.715 41.43-35.646 9.638-35.579-9.624-2.379-26.602H57.939l4.585 51.281 65.427 18.172 65.51-18.172 8.783-98.061H85.824l-2.923-32.71h122.14.098L208 38H48z"/><path d="M128 38H48l8.61 96.593H128v-31.938H85.824l-2.923-32.71H128V38zm0 147.647l-.041.014-35.579-9.624-2.379-26.602H57.939l4.585 51.281 65.427 18.172.049-.014v-33.227z" fill="#ebebeb"/></svg></g><g transform="translate(2100)"><svg width="256" height="256"><rect width="256" height="256" rx="60" fill="#0277bd"/><path d="M53.753 102.651l2.863 31.942h71.481v-31.942H53.753zM128.095 38h-.11H48l2.904 31.942h77.191V38zm0 180.841v-33.233l-.14.037-35.574-9.605-2.274-25.476H72.821 58.043l4.475 50.154 65.43 18.164.147-.041z" fill="#ebebeb"/><path d="M167.318 134.593l-3.708 41.426-35.625 9.616v33.231l65.483-18.148.48-5.397 7.506-84.092.779-8.578L208 38h-80.015v31.942h45.009l-2.906 32.709h-42.103v31.942h39.333z" fill="#fff"/></svg></g><g transform="translate(2400)"><svg width="256" height="256"><rect width="256" height="256" fill="#242938" rx="60"/><g clip-path="url(#C)"><path fill="#fff" fill-rule="evenodd" d="M203.801 178.21c-9.79-.272-17.385.731-23.75 3.409-1.833.736-4.774.736-5.016 3.043.98.968 1.098 2.552 1.957 3.894 1.467 2.435 4.041 5.715 6.365 7.417l7.834 5.598c4.774 2.917 10.16 4.622 14.811 7.542 2.694 1.704 5.386 3.894 8.08 5.721 1.372.973 2.203 2.558 3.918 3.163v-.368c-.856-1.091-1.103-2.672-1.956-3.894l-3.677-3.526c-3.547-4.744-7.957-8.884-12.731-12.287-3.918-2.677-12.484-6.326-14.076-10.825l-.241-.273c2.689-.272 5.872-1.219 8.445-1.949 4.165-1.091 7.957-.851 12.238-1.945l5.88-1.704v-1.091c-2.204-2.189-3.795-5.11-6.119-7.176-6.242-5.353-13.102-10.586-20.203-14.965-3.794-2.432-8.692-4.017-12.731-6.081-1.473-.731-3.918-1.096-4.774-2.312-2.209-2.672-3.43-6.204-5.021-9.369l-10.037-21.168c-2.203-4.745-3.553-9.49-6.242-13.869-12.611-20.683-26.324-33.212-47.38-45.502-4.527-2.555-9.913-3.654-15.64-4.99l-9.181-.491c-1.962-.851-3.918-3.163-5.633-4.259-6.977-4.379-24.974-13.868-30.119-1.363-3.306 7.908 4.898 15.693 7.683 19.709 2.085 2.798 4.774 5.961 6.248 9.124.823 2.067 1.098 4.259 1.956 6.449 1.956 5.353 3.795 11.316 6.366 16.306 1.372 2.555 2.812 5.235 4.527 7.545.979 1.363 2.694 1.947 3.059 4.136-1.715 2.435-1.833 6.081-2.812 9.127-4.409 13.748-2.694 30.78 3.548 40.902 1.962 3.04 6.585 9.734 12.858 7.177 5.51-2.19 4.28-9.124 5.872-15.208.37-1.458.123-2.432.856-3.408v.273l5.021 10.097c3.795 5.961 10.408 12.167 15.914 16.306 2.936 2.19 5.263 5.964 8.934 7.3v-.368h-.241c-.736-1.091-1.839-1.582-2.818-2.433-2.203-2.189-4.651-4.867-6.366-7.299-5.139-6.812-9.666-14.357-13.708-22.142-1.962-3.771-3.677-7.908-5.263-11.679-.741-1.461-.741-3.654-1.962-4.379-1.838 2.672-4.527 4.99-5.88 8.273-2.327 5.23-2.568 11.679-3.424 18.371-.494.122-.274 0-.494.272-3.913-.97-5.263-4.99-6.73-8.393-3.671-8.638-4.286-22.507-1.103-32.484.856-2.555 4.533-10.585 3.065-13.018-.741-2.312-3.183-3.648-4.533-5.475-1.591-2.312-3.301-5.23-4.404-7.785-2.936-6.817-4.404-14.357-7.589-21.171-1.474-3.163-4.042-6.449-6.124-9.367-2.327-3.286-4.892-5.598-6.73-9.489-.612-1.363-1.468-3.528-.488-4.99.241-.973.735-1.363 1.709-1.582 1.591-1.363 6.124.365 7.715 1.091 4.527 1.827 8.322 3.528 12.117 6.081 1.715 1.216 3.553 3.528 5.757 4.139h2.574c3.918.851 8.322.273 11.99 1.363 6.489 2.072 12.364 5.11 17.632 8.398 16.035 10.097 29.26 24.454 38.193 41.611 1.468 2.798 2.08 5.353 3.43 8.273 2.574 5.964 5.757 12.045 8.322 17.888 2.574 5.718 5.021 11.562 8.693 16.306 1.838 2.555 9.18 3.891 12.484 5.23 2.45 1.091 6.242 2.073 8.451 3.409 4.159 2.555 8.322 5.475 12.237 8.273 1.956 1.456 8.081 4.499 8.445 6.926l.014-.066zM78.958 72.487a19.57 19.57 0 0 0-5.016.608v.273h.242c.98 1.947 2.694 3.286 3.918 4.99l2.818 5.841.241-.273c1.715-1.216 2.574-3.163 2.574-6.081-.735-.851-.856-1.704-1.468-2.555-.735-1.216-2.327-1.827-3.309-2.798v-.005z"/></g><defs><clipPath id="C"><path fill="#fff" transform="translate(38 38)" d="M0 0h180v180H0z"/></clipPath></defs></svg></g><g transform="translate(2700)"><svg width="256" height="256"><rect width="256" height="256" fill="#023430" rx="60"/><path fill="#10aa50" d="M171.173 107.591c-10.537-46.481-32.497-58.855-38.099-67.602A99.4 99.4 0 0 1 126.949 28c-.296 4.129-.84 6.731-4.35 9.862-7.047 6.283-36.977 30.673-39.496 83.486-2.347 49.242 36.2 79.605 41.292 82.744 3.916 1.927 8.685.041 11.012-1.728 18.581-12.752 43.969-46.75 35.786-94.773"/><path fill="#b8c4c2" d="M128.545 177.871c-.97 12.188-1.665 19.27-4.129 26.235A590.39 590.39 0 0 0 127.169 228h4.019c.959-8.655 2.422-17.247 4.384-25.732-5.203-2.56-6.827-13.702-7.027-24.397z"/><path fill="#12924f" d="M135.565 202.275c-5.258-2.429-6.779-13.806-7.013-24.404 1.3-17.483 1.679-35.022 1.136-52.545-.276-9.194.13-85.158-2.265-96.28 1.639 3.767 3.526 7.42 5.651 10.936 5.602 8.754 27.569 21.128 38.099 67.609 8.203 47.941-17.047 81.849-35.608 94.684z"/></svg></g><g transform="translate(3000)"><svg width="256" height="256"><rect width="256" height="256" rx="60" fill="#092e20"/><path d="M112.689 51h28.615v132.45c-14.679 2.787-25.456 3.902-37.161 3.902C69.209 187.351 51 171.559 51 141.271c0-29.173 19.325-48.124 49.24-48.124 4.645 0 8.175.37 12.449 1.485V51zm0 66.671c-3.344-1.113-6.131-1.485-9.661-1.485-14.493 0-22.856 8.919-22.856 24.526 0 15.238 7.99 23.599 22.67 23.599 3.157 0 5.76-.186 9.847-.742v-45.898zm74.137-22.482v66.333c0 22.856-1.672 33.818-6.689 43.295-4.646 9.106-10.778 14.865-23.413 21.183l-26.571-12.636c12.635-5.945 18.767-11.146 22.668-19.139 4.089-8.175 5.391-17.652 5.391-42.55V95.189h28.614zm-28.614-44.037h28.614V80.51h-28.614V51.152z" fill="#fff"/></svg></g><g transform="translate(3300)"><svg width="256" height="256"><rect width="256" height="256" fill="#242938" rx="60"/><path fill="#00d8ff" d="M128.001 146.951a18.66 18.66 0 0 0 18.656-18.656 18.66 18.66 0 0 0-18.656-18.656 18.66 18.66 0 0 0-18.656 18.656 18.66 18.66 0 0 0 18.656 18.656z"/><g stroke="#00d8ff" stroke-width="8.911"><path d="M128.002 90.363c25.048 0 48.317 3.594 65.862 9.634C215.003 107.275 228 118.306 228 128.295c0 10.409-13.774 22.128-36.475 29.649-17.162 5.686-39.746 8.654-63.523 8.654-24.378 0-47.463-2.786-64.819-8.717C41.226 150.376 28 138.506 28 128.295c0-9.908 12.41-20.854 33.252-28.12 17.61-6.14 41.454-9.812 66.747-9.812h.004z"/><path d="M94.981 109.438c12.514-21.698 27.251-40.06 41.249-52.241 16.864-14.676 32.914-20.424 41.566-15.435 9.017 5.2 12.288 22.987 7.463 46.409-3.645 17.708-12.359 38.754-24.238 59.352-12.179 21.118-26.124 39.724-39.931 51.792-17.471 15.272-34.362 20.799-43.207 15.698-8.583-4.946-11.865-21.167-7.748-42.852 3.479-18.323 12.21-40.812 24.841-62.723h.004z"/><path d="M95.012 147.578c-12.549-21.674-21.093-43.616-24.659-61.826-4.293-21.941-1.258-38.716 7.387-43.72 9.008-5.215 26.052.834 43.934 16.712 13.52 12.004 27.403 30.062 39.316 50.639 12.214 21.098 21.368 42.473 24.929 60.461 4.506 22.764.859 40.157-7.978 45.272-8.574 4.964-24.265-.291-40.996-14.689-14.136-12.164-29.26-30.959-41.933-52.849z"/></g></svg></g><g transform="translate(3600)"><svg width="256" height="256"><rect width="256" height="256" fill="#f03c2e" rx="60"/><g clip-path="url(#D)"><path fill="#fff" d="M224.225 119.094l-87.319-87.319a12.87 12.87 0 0 0-4.177-2.793 12.88 12.88 0 0 0-9.858 0 12.87 12.87 0 0 0-4.177 2.793L100.569 49.9l23 23c5.35-1.875 11.475-.594 15.737 3.669 2.029 2.033 3.446 4.595 4.088 7.394a15.31 15.31 0 0 1-.457 8.437l22.169 22.169c5.363-1.85 11.55-.657 15.831 3.637a15.32 15.32 0 0 1 3.323 4.974c.77 1.86 1.166 3.853 1.166 5.866s-.397 4.006-1.168 5.866-1.9 3.549-3.324 4.972-3.113 2.552-4.973 3.322-3.853 1.167-5.866 1.166a15.33 15.33 0 0 1-5.866-1.167c-1.86-.771-3.55-1.9-4.973-3.324-4.5-4.5-5.612-11.125-3.337-16.669l-20.675-20.675v54.407c1.501.742 2.872 1.722 4.062 2.9 1.423 1.423 2.552 3.112 3.323 4.972s1.166 3.852 1.166 5.865-.396 4.006-1.166 5.865a15.34 15.34 0 0 1-3.323 4.973c-1.423 1.423-3.113 2.552-4.972 3.322s-3.853 1.167-5.865 1.167-4.006-.397-5.865-1.167a15.32 15.32 0 0 1-8.299-8.293c-.772-1.86-1.169-3.854-1.169-5.867a15.3 15.3 0 0 1 1.169-5.866c.771-1.86 1.901-3.549 3.326-4.971 1.481-1.475 3.125-2.594 5.019-3.344v-54.913c-1.825-.75-3.538-1.856-5.019-3.343-2.152-2.149-3.615-4.891-4.203-7.875a15.32 15.32 0 0 1 .903-8.881L91.644 58.813l-59.875 59.813a12.88 12.88 0 0 0-2.795 4.179 12.87 12.87 0 0 0-.982 4.93c0 1.692.334 3.368.982 4.931a12.88 12.88 0 0 0 2.795 4.179l87.325 87.312c1.195 1.196 2.615 2.145 4.177 2.793a12.89 12.89 0 0 0 9.858 0c1.562-.648 2.982-1.597 4.177-2.793l86.919-86.781a12.88 12.88 0 0 0 2.795-4.179 12.87 12.87 0 0 0 .981-4.93c0-1.692-.333-3.368-.981-4.931a12.88 12.88 0 0 0-2.795-4.179"/></g><defs><clipPath id="D"><path fill="#fff" transform="translate(28 28)" d="M0 0h200v200H0z"/></clipPath></defs></svg></g><g transform="translate(3900)"><svg width="256" height="256"><rect width="256" height="256" fill="#2396ed" rx="60"/><path fill="#fff" d="M141.187 122.123h20.717v-18.744h-20.717v18.744zm-24.662 0h20.716v-18.744h-20.716v18.744zm-24.17 0h20.717v-18.744H92.355v18.744zm-24.169 0h20.223v-18.744H68.186v18.744zm-24.663 0H64.24v-18.744H43.523v18.744zm24.663-22.69h20.223V80.69H68.186v18.744zm24.17 0h20.717V80.69H92.355v18.744zm24.17 0h20.716V80.69h-20.716v18.744zm0-22.69h20.716V58h-20.716v18.744zM228 113.738s-8.879-8.386-27.129-5.426c-1.973-14.305-17.264-22.69-17.264-22.69s-14.304 17.264-3.946 36.501c-2.959 1.48-7.892 3.453-15.291 3.453H28.726c-2.466 9.372-2.466 71.521 65.603 71.521 48.832 0 85.333-22.689 102.597-64.123C222.574 134.948 228 113.738 228 113.738z"/></svg></g><g transform="translate(4200)"><svg width="256" height="256"><rect width="256" height="256" fill="#242938" rx="60"/><path fill="#eceff1" d="M85.949 199.926l24.531 13.62h37.096l34.702-26.055 15.556-40.859-35.899-43.227-10.171-24.278-49.66 1.776.598 13.62-9.573 17.764-14.958 29.016-2.992 24.278 10.77 34.345z"/><path fill="#263238" d="M187.064 114.656c-9.573-13.62-17.351-21.91-21.539-39.082s1.197-12.435-2.393-27.239c-1.795-7.698-4.787-13.027-7.778-17.172-3.59-4.145-7.778-6.514-10.172-7.106-5.384-2.961-17.949-7.698-33.505.592-16.155 8.29-14.36 26.055-11.368 62.176 0 2.369-.599 5.329-1.795 7.698-2.393 5.329-6.582 10.066-10.171 14.212-4.188 5.921-8.376 11.843-11.368 18.356-7.18 13.62-13.761 30.792-11.966 37.306 2.992-.592 40.686 56.255 40.686 57.439 2.393-.592 12.564-.592 21.539-.592 12.565-.592 19.744-1.184 29.916 1.184 0-1.776-.599-3.553-.599-5.329 0-3.553.599-6.514 1.197-10.659l1.795-9.474c-5.983 5.329-16.753 11.251-26.924 13.027-8.975 1.776-23.933-1.184-31.113-10.067.599 0 1.795 0 2.394-.592 1.795-.592 3.59-1.184 4.188-2.368 1.795-2.961.598-5.922-.598-7.698s-10.172-8.291-14.36-11.843-6.581-5.33-8.975-7.698l-4.787-4.738c-1.197-1.184-1.795-2.368-2.393-2.961-1.197-2.96-1.795-6.513-1.197-11.25.598-6.514 2.991-11.844 5.983-17.765 1.197-2.369 4.188-7.106 4.188-7.106s-10.171 24.871-4.786 32.569c0 0 .598-7.698 2.992-15.396 1.795-5.33 4.787-13.028 8.376-17.173s12.564-19.541 13.163-29.016c0-4.145.598-8.29.598-11.251-2.393-2.369 39.489-8.29 41.882-1.776.598 2.369 8.975 23.686 13.761 34.937 2.393 5.33 5.385 10.067 7.18 15.988 1.795 6.514 2.991 15.396 2.991 24.279 0 1.776 0 4.737-.598 7.698 1.197 0 24.531-24.871-2.991-45.596 0 0 16.752 7.698 17.351 23.094.598 12.435-4.787 22.502-5.983 24.278.598 0 12.564 5.33 13.162 5.33 2.394 0 7.18-1.777 7.18-1.777.599-1.776 2.393-6.514 2.393-8.29 4.189-13.62-5.983-35.529-15.556-49.149h0z"/><path d="M111.078 75.574c4.296 0 7.778-5.302 7.778-11.843s-3.482-11.843-7.778-11.843-7.778 5.302-7.778 11.843 3.483 11.843 7.778 11.843zm26.924 1.184c5.618 0 10.172-6.098 10.172-13.62s-4.554-13.62-10.172-13.62-10.171 6.098-10.171 13.62 4.554 13.62 10.171 13.62z" fill="#eceff1"/><path d="M115.424 64.541c-.497-3.894-2.761-6.817-5.056-6.53s-3.752 3.676-3.254 7.57 2.76 6.817 5.055 6.53 3.752-3.676 3.255-7.57zm21.98 8.664c3.305 0 5.983-3.447 5.983-7.698s-2.678-7.698-5.983-7.698-5.983 3.447-5.983 7.698 2.679 7.698 5.983 7.698z" fill="#212121"/><path d="M216.98 195.781c-2.393-1.184-6.582-2.961-10.172-8.29-1.794-2.961-1.196-11.251-4.188-14.804-1.795-2.368-4.188-1.184-4.786-1.184-5.385 1.184-17.95 9.474-26.326 0-1.197-1.184-2.992-2.961-5.983-2.961s-4.188 1.184-5.385 3.553-1.197 4.145-1.197 10.067c0 4.737 0 10.066-.598 14.211-1.197 10.067-2.991 15.989-2.991 21.91 0 6.514 1.794 10.659 4.188 12.435 1.795 1.777 4.786 2.961 11.368 2.961s10.769-2.368 14.958-6.514c2.991-2.96 5.384-4.145 13.761-10.066 6.581-4.145 16.753-9.475 18.547-11.251 1.197-1.184 2.992-1.777 2.992-5.33 0-2.96-2.393-4.145-4.188-4.737h0zm-120.261 1.777c-5.983-9.475-6.582-11.251-10.77-17.173-3.59-5.921-11.368-17.172-16.154-17.172-3.59 0-5.385 1.776-7.778 4.145s-4.786 7.698-8.975 10.659c-3.59 2.96-13.761 2.368-16.154 5.921s2.393 8.883 2.393 17.765c0 3.553-2.992 5.921-3.59 8.29-.598 2.961-1.197 4.737 0 7.106 2.393 3.553 5.385 4.737 25.728 8.882 10.77 2.369 20.941 8.29 27.522 8.883s17.949 0 17.949-15.989c.599-9.474-4.786-11.843-10.171-21.317zm11.368-107.18c-3.59-2.369-6.582-4.737-6.582-8.29s2.394-4.737 5.984-7.698c.598-.592 7.179-6.514 13.761-6.514s14.359 4.145 17.351 5.329c5.385 1.184 10.769 2.369 10.171 6.514-.598 5.921-1.196 7.106-7.18 10.067-4.188 1.184-11.966 7.698-17.351 7.698-2.393 0-5.983 0-8.376-.592-1.795-.592-4.787-3.553-7.778-6.514h0z" fill="#ffc107"/><path d="M106.89 85.641c1.197 1.184 2.992 2.369 4.787 2.961 1.196.592 2.991 1.184 2.991 1.184h5.385c2.992 0 7.18-1.184 11.368-3.553 4.188-1.776 4.787-2.961 7.778-4.145 2.992-1.776 5.983-3.553 4.787-4.145s-2.394 0-6.582 2.369c-3.59 2.369-6.581 3.553-10.171 5.329-1.795.592-4.188 1.776-5.983 1.776h-5.385c-1.795 0-2.992-.592-4.787-1.184-1.196-.592-1.795-1.184-2.393-1.184-1.196-.592-3.59-2.961-4.786-3.553 0 0-1.197 0-.599.592l3.59 3.553zm17.95-13.028c.598 1.184 1.795 1.184 2.393 1.776s1.196.592 1.196.592c.599-.592 0-1.776-.598-1.776 0-1.184-2.991-1.184-2.991-.592h0zm-9.573 1.184c0 .592 1.196 1.184 1.196.592.599-.592 1.197-1.184 1.795-1.184 1.197-.592.598-1.184-1.196-1.184-1.197.592-1.197 1.184-1.795 1.776h0z" fill="#634703"/><path fill="#455a64" d="M173.303 178.609v1.776c1.197 2.369 4.188 2.961 6.581 2.961 3.59 0 7.18-2.369 8.975-4.737 0-.592.598-1.185 1.197-1.777 1.196-1.776 1.795-2.96 2.393-3.553 0 0-.598-.592-.598-1.184-.599-1.184-2.394-2.369-4.787-2.961-1.795-.592-4.786-1.184-5.983-1.184-5.385-.592-8.376 1.184-10.171 2.961 0 0 .598 0 .598.592 1.197 1.184 1.795 2.369 1.795 4.145.598 1.184 0 1.776 0 2.961h0z"/></svg></g></svg>